<?xml version="1.0" encoding="UTF-8"?> <svg xmlns="http://www.w3.org/2000/svg" width="88" height="88" viewBox="0 0 88 88" fill="none"><path d="M33.0694 33C33.0234 32.3949 33 31.7836 33 31.1667C33 18.0039 43.6704 7.33334 56.8333 7.33334C69.9963 7.33334 80.6667 18.0039 80.6667 31.1667C80.6667 44.3296 69.9963 55 56.8333 55C56.2166 55 55.605 54.9765 55 54.9307" stroke="#0BD1FC" stroke-width="3" stroke-linecap="round" stroke-linejoin="round"></path><path d="M31.1666 80.6667C18.0038 80.6667 7.33325 69.9963 7.33325 56.8333C7.33325 43.6704 18.0038 33 31.1666 33C44.3296 33 54.9999 43.6704 54.9999 56.8333C54.9999 69.9963 44.3296 80.6667 31.1666 80.6667Z" stroke="#0BD1FC" stroke-width="3" stroke-linecap="round" stroke-linejoin="round"></path><path d="M80.6666 62.3333C80.6666 68.4086 75.7419 73.3333 69.6666 73.3333H62.3333M62.3333 73.3333L69.6666 66M62.3333 73.3333L69.6666 80.6667" stroke="#0BD1FC" stroke-width="3" stroke-linecap="round" stroke-linejoin="round"></path><path d="M7.33325 25.6667C7.33325 19.5916 12.2581 14.6667 18.3333 14.6667H25.6666M25.6666 14.6667L18.3333 22M25.6666 14.6667L18.3333 7.33334" stroke="#0BD1FC" stroke-width="3" stroke-linecap="round" stroke-linejoin="round"></path></svg> 