<?xml version="1.0" encoding="UTF-8"?> <svg xmlns="http://www.w3.org/2000/svg" width="205" height="24" viewBox="0 0 205 24" fill="none"><path d="M18.8485 13.8514H27.8652H32.1873C34.9884 13.8514 37.6105 12.4457 39.1726 10.1509H27.8652H18.8485H10.2537C11.8158 12.4498 14.4358 13.8514 17.239 13.8514H18.8485Z" fill="url(#paint0_linear_271_1300)"></path><path d="M12.5998 8.77598H19.6963H25.9366C28.7377 8.77598 31.3598 7.37027 32.9219 5.07544H19.6963H12.5998H5.12671C6.68884 7.37027 9.30886 8.77598 12.112 8.77598H12.5998Z" fill="url(#paint1_linear_271_1300)"></path><path d="M24.6914 18.9266H25.4241H25.9366C28.7377 18.9266 31.3598 17.5209 32.9219 15.2261H25.4241H24.6914H15.3804C16.9384 17.525 19.5625 18.9266 22.3616 18.9266H24.6914Z" fill="url(#paint2_linear_271_1300)"></path><path d="M33.1052 0.00412031V0H0C1.56213 2.29689 4.1842 3.69849 6.98328 3.69849H32.9365C37.5199 3.69849 41.2369 7.41549 41.2369 11.999C41.2369 16.5825 37.5199 20.2995 32.9365 20.2995H20.5094C22.0715 22.5964 24.6936 23.9979 27.4927 23.9979H32.9365C32.9385 23.9979 32.9406 23.9979 32.9426 23.9979H33.1073V23.9938C39.6563 23.9033 44.9375 18.5686 44.9375 11.9969C44.9375 5.42526 39.6542 0.0967367 33.1052 0.00412031Z" fill="url(#paint3_linear_271_1300)"></path><path d="M78.8084 0.376465L69.874 23.6252H73.6096L75.643 18.237H85.1372L87.1707 23.6252H90.9062L81.9718 0.376465H78.8084ZM76.9211 14.8493L80.3911 5.65559L83.8591 14.8493H76.9211Z" fill="white"></path><path d="M105.643 0.376465H88.6589V3.76416H95.3932V23.6252H98.9064V3.76416H105.643V0.376465Z" fill="white"></path><path d="M112.327 0.376465L103.393 23.6252H107.129L109.162 18.237H118.656L120.69 23.6252H124.425L115.491 0.376465H112.327ZM110.44 14.8493L113.91 5.65559L117.378 14.8493H110.44Z" fill="white"></path><path d="M138.412 0.376465L132.046 18.0662L125.683 0.376465H121.892L130.46 23.6252H133.635L142.203 0.376465H138.412Z" fill="white"></path><path d="M153.223 0C149.882 0 147.015 1.17726 144.704 3.49884C142.395 5.82043 141.224 8.68124 141.224 11.999C141.224 15.3188 142.395 18.1796 144.704 20.4991C147.015 22.8207 149.88 23.9979 153.223 23.9979C156.565 23.9979 159.43 22.8207 161.741 20.4991C164.05 18.1775 165.222 15.3188 165.222 11.999C165.222 8.67919 164.05 5.82043 161.741 3.49884C159.43 1.17726 156.565 0 153.223 0ZM159.267 18.0705C157.627 19.7396 155.649 20.5506 153.223 20.5506C150.796 20.5506 148.818 19.7396 147.178 18.0705C145.533 16.3972 144.735 14.4132 144.735 12.001C144.735 9.59095 145.533 7.60484 147.178 5.93157C148.818 4.26242 150.796 3.45151 153.223 3.45151C155.649 3.45151 157.627 4.26242 159.267 5.93157C160.912 7.60484 161.71 9.58889 161.71 12.001C161.71 14.4111 160.912 16.3972 159.267 18.0705Z" fill="white"></path><path d="M171.176 0.376465H167.663V23.6252H181.199V20.2375H171.176V0.376465Z" fill="white"></path><path d="M200.712 3.50104C198.401 1.17946 195.534 0.00219727 192.194 0.00219727C188.853 0.00219727 185.986 1.17946 183.675 3.50104C181.366 5.82263 180.195 8.68344 180.195 12.0012C180.195 15.321 181.366 18.1818 183.675 20.5013C185.986 22.8229 188.851 24.0001 192.194 24.0001C195.536 24.0001 198.401 22.8229 200.712 20.5013C203.021 18.1797 204.193 15.321 204.193 12.0012C204.193 8.68138 203.021 5.82263 200.712 3.50104ZM198.238 18.0706C196.598 19.7398 194.62 20.5507 192.194 20.5507C189.767 20.5507 187.789 19.7398 186.149 18.0706C184.504 16.3974 183.706 14.4133 183.706 12.0012C183.706 9.59108 184.504 7.60498 186.149 5.93171C187.789 4.26255 189.767 3.45165 192.194 3.45165C194.62 3.45165 196.598 4.26255 198.238 5.93171C199.883 7.60498 200.681 9.58902 200.681 12.0012C200.679 14.4113 199.881 16.3974 198.238 18.0706Z" fill="white"></path><path d="M58.044 0.00412031V0H48.2925V1.5539V3.69849V20.2995V23.6234V24H57.8752C57.8773 24 57.8793 24 57.8814 24H58.046V23.9959C64.595 23.9053 69.8762 18.5706 69.8762 11.999C69.8762 5.42732 64.593 0.0967367 58.044 0.00412031ZM57.8752 20.3015H51.8057V3.70054H57.8752C62.4587 3.70054 66.1757 7.41755 66.1757 12.001C66.1757 16.5845 62.4587 20.3015 57.8752 20.3015Z" fill="white"></path><defs><linearGradient id="paint0_linear_271_1300" x1="16.2067" y1="12.0013" x2="44.5582" y2="12.0013" gradientUnits="userSpaceOnUse"><stop stop-color="#0868FF"></stop><stop offset="1" stop-color="#0BD1FC"></stop></linearGradient><linearGradient id="paint1_linear_271_1300" x1="15.0688" y1="6.92598" x2="31.8846" y2="6.92598" gradientUnits="userSpaceOnUse"><stop stop-color="#0BD1FC"></stop><stop offset="1" stop-color="#0868FF"></stop></linearGradient><linearGradient id="paint2_linear_271_1300" x1="15.0687" y1="17.0763" x2="31.8846" y2="17.0763" gradientUnits="userSpaceOnUse"><stop stop-color="#0BD1FC"></stop><stop offset="1" stop-color="#0868FF"></stop></linearGradient><linearGradient id="paint3_linear_271_1300" x1="40.0737" y1="12.0008" x2="12.0825" y2="12.0008" gradientUnits="userSpaceOnUse"><stop stop-color="#0BD1FC"></stop><stop offset="1" stop-color="#0868FF"></stop></linearGradient></defs></svg> 