<?xml version="1.0" encoding="UTF-8"?> <svg xmlns="http://www.w3.org/2000/svg" width="33" height="32" viewBox="0 0 33 32" fill="none"><path fill-rule="evenodd" clip-rule="evenodd" d="M16.5 0C7.66344 0 0.5 7.16344 0.5 16C0.5 24.8366 7.66344 32 16.5 32C25.3366 32 32.5 24.8366 32.5 16C32.5 7.16344 25.3366 0 16.5 0ZM8.18108 13.2519H11.807V24.1464H8.18108V13.2519ZM12.0458 9.8818C12.0223 8.8136 11.2584 8 10.018 8C8.77761 8 7.96667 8.8136 7.96667 9.8818C7.96667 10.9279 8.75364 11.7649 9.97095 11.7649H9.99413C11.2584 11.7649 12.0458 10.9279 12.0458 9.8818ZM20.7088 12.9961C23.0948 12.9961 24.8836 14.5535 24.8836 17.8998L24.8834 24.1464H21.2576V18.3178C21.2576 16.8538 20.7329 15.8548 19.4203 15.8548C18.4186 15.8548 17.8219 16.5283 17.5599 17.1788C17.464 17.4119 17.4405 17.7367 17.4405 18.0623V24.1467H13.8141C13.8141 24.1467 13.8619 14.2745 13.8141 13.2522H17.4405V14.7953C17.9217 14.0535 18.7836 12.9961 20.7088 12.9961Z" fill="white"></path></svg> 