<?xml version="1.0" encoding="UTF-8"?> <svg xmlns="http://www.w3.org/2000/svg" width="88" height="88" viewBox="0 0 88 88" fill="none"><path d="M38.5782 9.62016C41.4873 6.42601 46.5128 6.42601 49.422 9.62016L53.1627 13.7277C54.6327 15.342 56.7458 16.2172 58.9271 16.1153L64.4766 15.8559C68.7919 15.6542 72.346 19.2081 72.1443 23.5236L71.8847 29.0732C71.7828 31.2542 72.658 33.3672 74.2724 34.8374L78.3798 38.5781C81.5742 41.4872 81.5742 46.5128 78.3798 49.4219L74.2724 53.1626C72.658 54.6326 71.7828 56.7457 71.8847 58.927L72.1443 64.4765C72.346 68.7918 68.7919 72.3459 64.4766 72.1442L58.9271 71.8846C56.7458 71.7827 54.6327 72.6579 53.1627 74.2724L49.422 78.3798C46.5128 81.5742 41.4873 81.5742 38.5782 78.3798L34.8375 74.2724C33.3673 72.6579 31.2543 71.7827 29.0732 71.8846L23.5237 72.1442C19.2081 72.3459 15.6543 68.7918 15.856 64.4765L16.1154 58.927C16.2173 56.7457 15.3421 54.6326 13.7277 53.1626L9.62022 49.4219C6.42607 46.5128 6.42607 41.4872 9.62022 38.5781L13.7277 34.8374C15.3421 33.3672 16.2173 31.2542 16.1154 29.0732L15.856 23.5236C15.6543 19.2081 19.2081 15.6542 23.5237 15.8559L29.0732 16.1153C31.2543 16.2172 33.3673 15.342 34.8375 13.7277L38.5782 9.62016Z" stroke="#0BD1FC" stroke-width="3"></path><path d="M33 44L40.3333 51.3333L55 36.6667" stroke="#0BD1FC" stroke-width="3" stroke-linecap="round" stroke-linejoin="round"></path></svg> 