<?xml version="1.0" encoding="UTF-8"?> <svg xmlns="http://www.w3.org/2000/svg" width="32" height="32" viewBox="0 0 32 32" fill="none"><path fill-rule="evenodd" clip-rule="evenodd" d="M16 0C7.16344 0 0 7.16344 0 16C0 24.8366 7.16344 32 16 32C24.8366 32 32 24.8366 32 16C32 7.16344 24.8366 0 16 0ZM19.9389 12.9446L21.468 12.4471C22.265 12.1877 22.7013 11.3303 22.4423 10.532C22.1833 9.73377 21.3272 9.29689 20.53 9.55625L19.001 10.0539L18.5042 8.52259C18.2452 7.72424 17.3891 7.28736 16.592 7.54686C15.7948 7.80621 15.3585 8.6636 15.6177 9.46182L16.1147 10.9934L12.9208 12.033L12.4238 10.5011C12.1647 9.70285 11.3085 9.26597 10.5115 9.52533C9.71427 9.78469 9.27802 10.6421 9.53714 11.4404L10.0344 12.9726L8.45637 13.4862C7.71169 13.7559 7.29318 14.5615 7.51557 15.3349C7.74731 16.1415 8.60276 16.6332 9.39396 16.3758L10.9722 15.8622L12.0106 19.0617L10.4321 19.5755C9.68745 19.8452 9.26894 20.6508 9.49119 21.4242C9.72307 22.2308 10.5785 22.7225 11.3696 22.4651L12.9485 21.9514L13.4613 23.5315C13.7307 24.2772 14.5352 24.6963 15.3074 24.4736C16.1129 24.2416 16.6039 23.3849 16.3468 22.5925L15.8342 21.0124L19.029 19.9728L19.5418 21.5529C19.8113 22.2986 20.6157 22.7177 21.3879 22.4952C22.1934 22.2629 22.6844 21.4062 22.4273 20.614L21.9147 19.0339L23.4436 18.5364C24.2408 18.277 24.6769 17.4196 24.4179 16.6213C24.1589 15.8231 23.3028 15.3862 22.5057 15.6455L20.9768 16.1432L19.9389 12.9446ZM17.0528 13.8836L18.091 17.0825L14.8965 18.1223L13.8585 14.923L17.0528 13.8836Z" fill="white"></path></svg> 